<svg id="svg" xmlns="http://www.w3.org/2000/svg" xmlns:xlink="http://www.w3.org/1999/xlink" width="400" height="400" viewBox="0, 0, 400,400" version="1.1">
  <g id="svgg">
    <path id="path0" d="M172.500 4.679 C 172.005 4.776,171.600 4.979,171.600 5.130 C 171.600 5.281,171.080 5.635,170.444 5.916 C 168.663 6.705,168.400 8.554,168.400 20.280 C 168.400 31.179,168.573 32.609,170.069 34.106 C 171.725 35.762,172.011 35.780,200.000 35.992 L 227.401 36.200 228.400 37.200 L 229.400 38.200 229.508 64.663 C 229.603 87.910,229.543 91.200,229.008 91.735 C 228.674 92.069,228.398 92.491,228.396 92.671 C 228.388 93.251,225.737 95.600,225.091 95.600 C 224.748 95.600,224.392 95.825,224.300 96.100 C 224.170 96.489,220.671 96.600,208.600 96.600 C 196.529 96.600,193.029 96.489,192.900 96.100 C 192.808 95.825,192.253 95.599,191.667 95.598 C 190.415 95.595,187.488 94.833,187.200 94.435 C 186.985 94.137,184.236 92.800,183.840 92.800 C 183.623 92.800,183.214 92.460,181.166 90.581 C 180.818 90.262,180.406 90.000,180.252 90.000 C 179.699 90.000,175.026 84.944,173.773 82.990 C 173.354 82.335,172.783 81.562,172.505 81.271 C 172.227 80.981,172.000 80.499,172.000 80.200 C 172.000 79.901,171.726 79.383,171.390 79.048 C 171.055 78.712,170.575 77.394,170.323 76.119 C 170.072 74.844,169.742 73.710,169.591 73.600 C 169.440 73.490,169.094 72.465,168.823 71.322 C 168.287 69.061,167.114 67.445,165.700 67.018 C 165.205 66.868,164.800 66.578,164.800 66.373 C 164.800 66.151,160.184 66.000,153.400 66.000 C 146.067 66.000,142.000 66.143,142.000 66.400 C 142.000 66.620,141.685 66.806,141.300 66.813 C 139.444 66.846,138.400 68.749,138.400 72.100 C 138.400 74.829,139.090 79.270,139.565 79.600 C 139.724 79.710,140.163 81.229,140.541 82.976 C 140.919 84.723,141.379 86.343,141.563 86.576 C 141.747 86.809,142.134 87.945,142.424 89.100 C 142.714 90.255,143.083 91.200,143.245 91.200 C 143.406 91.200,143.746 91.830,144.000 92.600 C 144.254 93.370,144.600 94.000,144.768 94.000 C 144.936 94.000,145.292 94.730,145.559 95.621 C 145.826 96.513,146.274 97.330,146.554 97.438 C 146.834 97.545,147.308 98.256,147.607 99.017 C 147.905 99.777,148.300 100.400,148.485 100.400 C 148.669 100.400,148.991 100.850,149.200 101.400 C 149.409 101.950,149.780 102.400,150.023 102.400 C 150.267 102.400,150.399 102.603,150.317 102.850 C 150.003 103.790,160.745 114.523,163.645 116.169 C 164.390 116.592,165.136 117.162,165.302 117.437 C 165.469 117.712,166.144 118.056,166.802 118.201 C 167.461 118.345,168.000 118.639,168.000 118.853 C 168.000 119.067,168.540 119.430,169.200 119.660 C 169.860 119.890,170.400 120.216,170.400 120.384 C 170.400 120.553,171.433 121.015,172.696 121.413 C 173.959 121.810,175.215 122.358,175.488 122.631 C 175.761 122.904,176.708 123.249,177.592 123.399 C 178.476 123.548,179.200 123.811,179.200 123.983 C 179.200 124.155,180.325 124.506,181.700 124.764 C 183.075 125.021,184.560 125.395,185.000 125.596 C 186.121 126.106,192.989 127.200,195.070 127.200 C 196.022 127.200,196.800 127.380,196.800 127.600 C 196.800 127.859,201.667 128.000,210.600 128.000 C 219.533 128.000,224.400 127.859,224.400 127.600 C 224.400 127.380,224.844 127.200,225.386 127.200 C 229.236 127.200,230.000 125.317,230.000 115.823 C 230.000 112.180,230.144 109.200,230.320 109.200 C 230.496 109.200,230.865 108.111,231.140 106.780 C 231.422 105.411,231.892 104.263,232.220 104.137 C 232.539 104.015,232.800 103.723,232.800 103.489 C 232.800 102.687,237.158 98.873,238.381 98.604 C 239.051 98.457,239.600 98.190,239.600 98.012 C 239.600 97.374,241.909 97.101,249.522 96.840 C 253.770 96.694,257.370 96.400,257.522 96.187 C 257.675 95.974,258.160 95.602,258.600 95.361 C 259.040 95.119,259.567 94.264,259.771 93.461 C 259.974 92.657,260.289 92.000,260.471 92.000 C 260.652 92.000,260.800 73.370,260.800 50.600 C 260.800 27.830,260.652 9.200,260.471 9.200 C 260.289 9.200,259.974 8.543,259.771 7.739 C 259.567 6.936,259.040 6.081,258.600 5.839 C 258.160 5.598,257.672 5.220,257.515 5.000 C 257.233 4.605,174.463 4.293,172.500 4.679 M54.800 5.200 C 54.800 5.420,54.474 5.600,54.075 5.600 C 53.364 5.600,52.427 6.334,51.161 7.884 C 50.705 8.443,50.500 9.631,50.446 12.033 C 50.342 16.686,50.089 17.776,48.863 18.860 L 47.800 19.800 28.085 20.000 C 13.484 20.148,8.294 20.323,8.077 20.675 C 7.916 20.936,7.292 21.337,6.692 21.565 C 6.091 21.793,5.600 22.240,5.600 22.557 C 5.600 22.874,5.375 23.208,5.100 23.300 C 4.420 23.527,4.361 108.274,5.040 108.715 C 5.282 108.872,5.689 109.397,5.945 109.883 C 6.229 110.423,6.952 110.867,7.805 111.027 C 8.572 111.171,9.200 111.449,9.200 111.645 C 9.200 111.847,16.961 112.000,27.180 112.000 C 50.994 112.000,49.715 111.634,50.219 118.600 C 50.570 123.435,51.609 125.854,53.572 126.399 C 55.575 126.955,122.375 126.942,123.840 126.385 C 127.043 125.167,126.855 128.685,126.718 72.400 C 126.587 18.622,126.764 22.202,124.200 21.356 C 123.760 21.211,123.283 20.910,123.140 20.687 C 122.987 20.449,119.444 20.184,114.513 20.041 L 106.146 19.800 105.121 18.693 C 104.190 17.688,104.069 17.162,103.808 12.993 C 103.650 10.467,103.398 8.400,103.247 8.400 C 103.096 8.400,102.658 7.867,102.273 7.216 C 101.791 6.400,101.141 5.950,100.187 5.771 C 99.424 5.628,98.800 5.351,98.800 5.155 C 98.800 4.952,89.363 4.800,76.800 4.800 C 62.400 4.800,54.800 4.938,54.800 5.200 M284.000 5.200 C 284.000 5.420,283.672 5.600,283.272 5.600 C 280.619 5.600,280.000 8.403,280.002 20.397 C 280.006 35.437,280.341 35.989,289.471 35.998 C 291.132 35.999,292.140 36.197,292.543 36.600 C 292.873 36.930,293.318 37.200,293.532 37.200 C 294.672 37.200,294.799 40.211,294.760 66.360 C 294.719 94.038,294.690 94.643,293.391 95.362 C 292.956 95.603,292.485 95.958,292.344 96.152 C 292.204 96.345,288.296 96.620,283.661 96.762 L 275.232 97.019 274.016 98.185 C 273.226 98.942,272.800 99.743,272.800 100.475 C 272.800 101.094,272.620 101.600,272.400 101.600 C 272.144 101.600,272.000 105.267,272.000 111.800 C 272.000 118.333,272.144 122.000,272.400 122.000 C 272.620 122.000,272.800 122.459,272.800 123.020 C 272.800 124.480,273.816 126.243,274.884 126.634 C 275.971 127.033,361.683 127.367,365.918 126.989 C 371.356 126.503,371.558 125.929,371.583 110.900 C 371.592 105.125,371.744 100.400,371.920 100.400 C 372.095 100.400,372.460 99.790,372.730 99.044 C 373.391 97.216,373.751 97.140,383.200 96.843 L 391.400 96.584 392.560 95.414 C 394.225 93.734,394.380 92.541,394.390 81.277 C 394.399 71.916,394.032 67.600,393.228 67.600 C 393.076 67.600,392.535 67.213,392.027 66.739 C 391.161 65.932,390.612 65.868,383.251 65.711 C 374.669 65.528,373.482 65.286,372.717 63.558 C 372.435 62.921,372.069 62.400,371.902 62.400 C 371.736 62.400,371.596 50.745,371.590 36.500 C 371.580 6.840,371.435 5.600,367.979 5.600 C 367.551 5.600,367.200 5.420,367.200 5.200 C 367.200 4.936,353.067 4.800,325.600 4.800 C 298.133 4.800,284.000 4.936,284.000 5.200 M345.000 44.903 C 345.660 45.284,346.020 45.602,345.800 45.610 C 345.580 45.618,345.715 45.808,346.100 46.032 C 346.485 46.256,346.800 46.688,346.800 46.991 C 346.800 47.295,347.115 47.858,347.500 48.243 C 348.401 49.144,348.589 68.404,347.700 68.700 C 347.425 68.792,347.200 69.058,347.200 69.293 C 347.200 70.173,344.363 72.456,342.993 72.679 C 342.227 72.803,341.600 73.061,341.600 73.252 C 341.600 73.444,337.910 73.600,333.400 73.600 C 328.200 73.600,325.200 73.454,325.200 73.200 C 325.200 72.980,324.642 72.800,323.960 72.800 C 323.024 72.800,322.264 72.350,320.860 70.966 L 319.000 69.132 319.000 58.637 C 319.000 49.331,319.076 48.066,319.674 47.469 C 320.044 47.098,320.455 46.456,320.587 46.041 C 320.719 45.626,321.226 45.150,321.713 44.984 C 322.201 44.817,322.960 44.540,323.400 44.368 C 325.124 43.693,343.698 44.153,345.000 44.903 M44.025 51.605 C 45.198 51.827,46.258 52.155,46.379 52.334 C 46.501 52.512,46.919 52.776,47.309 52.920 C 47.699 53.064,48.138 53.501,48.284 53.891 C 48.431 54.281,48.786 54.780,49.074 55.000 C 49.978 55.692,50.520 61.784,50.284 68.600 C 49.871 80.517,49.269 81.000,34.833 81.000 C 27.695 81.000,25.427 80.881,25.300 80.500 C 25.208 80.225,24.815 80.000,24.425 80.000 C 23.368 80.000,21.618 78.191,21.342 76.812 C 21.209 76.145,20.943 75.600,20.750 75.600 C 20.558 75.600,20.400 71.370,20.400 66.200 C 20.400 61.030,20.558 56.800,20.750 56.800 C 20.943 56.800,21.205 56.274,21.334 55.630 C 21.657 54.015,23.555 52.193,25.432 51.697 C 27.487 51.154,41.286 51.085,44.025 51.605 M105.238 51.646 C 107.180 52.062,107.991 52.637,109.867 54.926 C 111.636 57.085,111.751 77.200,109.994 77.200 C 109.807 77.200,109.536 77.570,109.393 78.023 C 109.249 78.475,108.472 79.150,107.666 79.523 C 106.860 79.895,106.071 80.380,105.914 80.600 C 105.485 81.202,86.455 81.137,86.081 80.532 C 85.922 80.274,85.306 79.941,84.712 79.792 C 83.477 79.482,83.023 79.012,82.595 77.600 C 82.428 77.050,82.091 76.471,81.846 76.314 C 80.851 75.676,81.267 56.323,82.300 55.215 C 82.795 54.684,83.200 54.013,83.200 53.725 C 83.200 53.436,83.461 53.200,83.780 53.200 C 84.099 53.200,84.508 52.936,84.689 52.613 C 85.426 51.295,100.333 50.594,105.238 51.646 M59.500 139.083 C 58.675 139.174,58.000 139.417,58.000 139.624 C 58.000 139.831,57.492 140.000,56.870 140.000 C 55.160 140.000,48.228 141.248,48.000 141.597 C 47.890 141.766,46.765 142.134,45.500 142.415 C 44.235 142.697,43.200 143.076,43.200 143.258 C 43.200 143.440,42.390 143.792,41.400 144.042 C 40.410 144.291,39.600 144.639,39.600 144.815 C 39.600 144.992,38.700 145.435,37.600 145.800 C 36.500 146.165,35.600 146.586,35.600 146.735 C 35.600 146.883,35.033 147.256,34.340 147.563 C 33.647 147.869,32.760 148.408,32.369 148.760 C 30.951 150.035,30.400 150.426,30.400 150.156 C 30.400 150.005,29.858 150.448,29.197 151.141 C 28.535 151.833,27.847 152.400,27.669 152.400 C 27.490 152.400,26.973 152.805,26.519 153.300 C 26.064 153.795,24.907 154.939,23.946 155.843 C 22.986 156.746,21.821 157.933,21.357 158.480 C 20.894 159.027,20.155 159.728,19.717 160.037 C 19.278 160.347,18.618 161.185,18.249 161.900 C 17.881 162.615,17.404 163.200,17.190 163.200 C 16.975 163.200,16.800 163.468,16.800 163.797 C 16.800 164.125,16.440 164.618,16.000 164.893 C 15.560 165.168,15.200 165.609,15.200 165.874 C 15.200 166.138,14.872 166.590,14.471 166.877 C 14.070 167.165,13.486 167.985,13.173 168.700 C 12.861 169.415,12.474 170.000,12.314 170.000 C 12.153 170.000,11.735 170.990,11.383 172.200 C 11.031 173.410,10.597 174.400,10.419 174.400 C 10.241 174.400,9.880 175.253,9.618 176.295 C 9.355 177.337,8.956 178.304,8.730 178.443 C 8.256 178.736,7.215 182.872,7.206 184.500 C 7.203 185.105,7.042 185.600,6.849 185.600 C 6.656 185.600,6.269 187.085,5.990 188.900 C 5.711 190.715,5.284 192.328,5.041 192.485 C 4.114 193.085,4.453 258.032,5.389 259.100 C 5.823 259.595,6.393 260.000,6.656 260.000 C 6.918 260.000,7.209 260.225,7.301 260.500 C 7.509 261.121,31.496 261.183,31.931 260.564 C 32.079 260.354,32.695 259.867,33.300 259.482 C 33.905 259.097,34.400 258.531,34.400 258.224 C 34.400 257.918,34.625 257.592,34.900 257.500 C 35.292 257.370,35.451 250.294,35.638 224.767 C 35.863 193.997,36.001 190.000,36.841 190.000 C 37.032 190.000,37.392 189.190,37.642 188.200 C 37.891 187.210,38.232 186.400,38.399 186.400 C 38.566 186.400,38.927 185.860,39.200 185.200 C 39.473 184.540,39.834 184.000,40.002 184.000 C 40.170 184.000,40.412 183.685,40.542 183.300 C 41.059 181.760,46.320 176.023,47.701 175.493 C 48.085 175.346,48.400 175.059,48.400 174.856 C 48.400 174.653,49.120 174.199,50.000 173.847 C 50.880 173.495,51.600 173.033,51.600 172.821 C 51.600 172.610,52.239 172.316,53.020 172.170 C 53.800 172.023,54.680 171.662,54.975 171.368 C 56.019 170.324,60.732 170.006,75.203 170.003 C 91.399 170.000,94.000 170.365,94.000 172.646 C 94.000 172.904,94.263 173.215,94.584 173.338 C 94.931 173.472,95.276 174.379,95.435 175.581 C 95.583 176.692,95.860 177.600,96.052 177.600 C 96.243 177.600,96.400 180.750,96.400 184.600 C 96.400 189.000,96.251 191.600,96.000 191.600 C 95.780 191.600,95.600 192.132,95.600 192.781 C 95.600 195.398,93.371 198.293,91.069 198.666 C 90.261 198.797,89.600 199.061,89.600 199.252 C 89.600 199.444,82.354 199.600,73.497 199.600 C 54.017 199.600,52.800 199.860,52.800 204.021 C 52.800 204.889,52.620 205.600,52.400 205.600 C 52.144 205.600,52.000 209.333,52.000 216.000 C 52.000 222.667,52.144 226.400,52.400 226.400 C 52.620 226.400,52.806 226.715,52.813 227.100 C 52.842 228.687,54.725 230.000,56.974 230.000 C 57.758 230.000,58.400 230.180,58.400 230.400 C 58.400 230.660,63.835 230.801,73.900 230.802 C 83.892 230.804,89.960 230.960,90.977 231.242 C 93.396 231.914,95.600 234.668,95.600 237.019 C 95.600 237.558,95.769 238.000,95.975 238.000 C 96.195 238.000,96.402 242.222,96.475 248.236 C 96.611 259.362,96.759 260.000,99.211 260.000 C 99.608 260.000,100.008 260.225,100.100 260.500 C 100.228 260.885,102.975 261.000,112.033 261.000 L 123.800 261.000 125.200 259.646 L 126.600 258.292 126.719 217.046 C 126.784 194.361,126.732 175.061,126.603 174.158 C 126.362 172.472,124.681 170.000,123.775 170.000 C 123.496 170.000,123.198 169.793,123.113 169.540 C 123.008 169.224,120.715 169.034,115.780 168.931 C 108.583 168.781,104.400 168.277,104.400 167.559 C 104.400 167.348,104.085 167.061,103.700 166.922 C 102.889 166.630,102.358 166.209,100.300 164.229 C 99.475 163.435,98.800 162.622,98.800 162.421 C 98.800 162.221,98.522 161.779,98.183 161.440 C 97.137 160.394,96.400 155.153,96.400 148.765 C 96.400 145.055,96.249 142.800,96.000 142.800 C 95.780 142.800,95.600 142.536,95.600 142.214 C 95.600 141.891,95.022 141.036,94.316 140.314 L 93.032 139.000 77.016 138.959 C 68.207 138.936,60.325 138.992,59.500 139.083 M150.700 139.080 C 150.095 139.175,149.600 139.382,149.600 139.539 C 149.600 139.697,148.759 140.074,147.732 140.377 C 145.328 141.087,141.558 144.677,140.562 147.205 C 140.173 148.192,139.718 149.094,139.551 149.209 C 137.871 150.365,137.847 219.213,139.527 220.379 C 139.702 220.501,140.082 221.185,140.371 221.900 C 140.660 222.615,141.066 223.200,141.272 223.200 C 141.478 223.200,141.536 223.380,141.400 223.600 C 141.264 223.820,141.315 224.000,141.512 224.000 C 141.710 224.000,142.057 224.407,142.284 224.905 C 142.510 225.402,143.209 226.077,143.836 226.405 C 144.463 226.732,145.283 227.270,145.659 227.600 C 146.035 227.930,146.581 228.386,146.871 228.612 C 147.762 229.308,150.594 230.000,152.546 230.000 C 153.566 230.000,154.400 230.180,154.400 230.400 C 154.400 230.648,156.607 230.800,160.220 230.800 C 165.521 230.800,167.694 231.145,168.472 232.110 C 168.512 232.160,168.653 237.780,168.786 244.600 C 169.041 257.726,169.270 259.211,171.144 259.900 C 171.505 260.033,171.928 260.335,172.086 260.571 C 172.278 260.860,176.247 261.000,184.286 261.000 L 196.200 261.000 197.500 259.834 C 198.215 259.193,198.800 258.443,198.800 258.167 C 198.800 257.892,199.025 257.592,199.300 257.500 C 199.679 257.374,199.848 254.406,200.000 245.200 C 200.152 235.992,200.321 233.025,200.700 232.899 C 200.975 232.808,201.200 232.496,201.200 232.206 C 201.200 231.124,203.732 230.800,212.160 230.803 C 224.828 230.808,225.261 230.919,228.800 235.074 C 229.290 235.650,229.437 237.789,229.600 246.756 C 229.751 255.038,229.923 257.775,230.300 257.900 C 230.575 257.992,230.800 258.315,230.800 258.619 C 230.800 258.923,231.205 259.385,231.700 259.646 C 232.195 259.906,232.728 260.318,232.885 260.560 C 233.321 261.231,257.276 261.173,257.500 260.500 C 257.592 260.225,257.894 260.000,258.171 260.000 C 258.867 260.000,260.000 258.680,260.000 257.869 C 260.000 257.501,260.180 257.200,260.400 257.200 C 260.662 257.200,260.800 249.333,260.800 234.400 C 260.800 221.860,260.657 211.600,260.483 211.600 C 260.308 211.600,259.993 211.027,259.783 210.326 C 259.071 207.957,257.544 207.484,249.600 207.170 C 245.750 207.017,242.556 206.872,242.502 206.846 C 242.449 206.821,241.590 205.997,240.595 205.016 C 238.049 202.506,238.000 202.040,238.000 180.145 C 238.000 169.363,237.847 161.200,237.645 161.200 C 237.449 161.200,237.175 160.593,237.036 159.851 C 236.897 159.110,236.408 158.075,235.950 157.551 C 235.493 157.028,234.899 156.291,234.631 155.914 C 233.522 154.351,230.160 154.000,216.316 154.000 C 208.902 154.000,203.200 153.845,203.200 153.643 C 203.200 153.447,202.750 153.174,202.200 153.036 C 201.650 152.898,201.200 152.533,201.200 152.226 C 201.200 151.918,200.977 151.592,200.705 151.502 C 200.371 151.390,200.124 149.850,199.948 146.783 C 199.790 144.024,199.512 142.171,199.244 142.081 C 199.000 142.000,198.794 141.723,198.787 141.467 C 198.779 141.210,198.399 140.550,197.942 140.000 L 197.110 139.000 174.455 138.954 C 161.995 138.928,151.305 138.985,150.700 139.080 M276.314 139.069 C 274.744 139.490,273.105 141.572,272.898 143.407 C 272.787 144.393,272.539 145.200,272.348 145.200 C 272.152 145.200,272.000 169.368,272.000 200.400 C 272.000 231.541,272.152 255.600,272.349 255.600 C 272.541 255.600,272.812 256.314,272.952 257.187 C 273.106 258.155,273.504 258.935,273.972 259.185 C 274.393 259.410,275.054 259.911,275.441 260.297 C 276.346 261.203,298.802 261.395,299.100 260.500 C 299.192 260.225,299.580 260.000,299.964 260.000 C 300.628 260.000,301.869 258.888,302.640 257.600 C 302.843 257.261,303.087 239.044,303.200 215.771 C 303.387 177.195,303.445 174.497,304.100 173.843 C 304.485 173.458,304.800 172.880,304.800 172.559 C 304.800 172.238,305.115 171.857,305.500 171.712 C 305.885 171.568,306.410 171.168,306.668 170.825 C 307.083 170.270,310.052 170.200,333.348 170.200 L 359.560 170.200 360.987 171.758 C 361.772 172.615,362.528 173.785,362.668 174.358 C 362.809 174.931,363.120 175.528,363.362 175.685 C 363.673 175.888,363.858 187.812,364.000 216.703 C 364.218 261.016,364.113 259.078,366.323 259.892 C 366.695 260.029,367.128 260.335,367.285 260.571 C 367.725 261.232,390.479 261.163,390.700 260.500 C 390.792 260.225,391.167 259.994,391.533 259.987 C 392.706 259.965,393.554 258.985,393.973 257.169 C 394.463 255.043,394.532 176.259,394.046 173.751 C 393.284 169.820,391.619 169.148,381.800 168.808 C 374.359 168.550,372.400 168.310,372.400 167.655 C 372.400 167.512,371.851 167.152,371.181 166.856 C 369.417 166.075,366.568 163.120,365.961 161.443 C 365.674 160.649,365.314 160.000,365.161 160.000 C 364.560 160.000,364.000 154.643,364.000 148.896 C 364.000 144.061,363.880 142.737,363.400 142.257 C 363.070 141.927,362.800 141.497,362.800 141.301 C 362.800 141.105,362.305 140.507,361.700 139.972 L 360.600 139.000 318.800 138.943 C 295.810 138.911,276.691 138.968,276.314 139.069 M209.119 177.868 C 209.278 178.126,209.881 178.455,210.460 178.601 C 211.564 178.878,213.303 180.563,212.901 180.966 C 212.772 181.095,212.855 181.200,213.086 181.200 C 213.970 181.200,214.400 184.970,214.400 192.717 C 214.400 206.282,213.468 207.207,199.803 207.190 C 189.073 207.177,188.819 207.106,185.400 203.130 C 184.478 202.058,184.131 183.089,185.023 182.486 C 185.255 182.329,185.673 181.636,185.952 180.947 C 186.260 180.185,187.033 179.403,187.929 178.947 C 188.738 178.536,189.490 178.083,189.600 177.940 C 190.240 177.109,208.609 177.041,209.119 177.868 M41.200 272.400 C 41.200 272.620,40.553 272.800,39.762 272.800 C 35.668 272.800,35.205 274.172,35.202 286.300 C 35.201 291.415,35.044 295.600,34.853 295.600 C 34.662 295.600,34.410 296.310,34.294 297.178 C 34.085 298.732,31.880 301.600,30.893 301.600 C 30.658 301.600,30.392 301.825,30.300 302.100 C 30.175 302.477,27.336 302.657,18.767 302.833 C 12.515 302.961,7.382 303.096,7.359 303.133 C 7.337 303.170,6.707 303.785,5.959 304.499 L 4.600 305.798 4.600 348.999 L 4.600 392.200 5.572 393.300 C 6.107 393.905,6.872 394.400,7.272 394.400 C 7.672 394.400,8.000 394.580,8.000 394.800 C 8.000 395.065,24.800 395.200,57.600 395.200 C 90.400 395.200,107.200 395.065,107.200 394.800 C 107.200 394.580,107.516 394.400,107.901 394.400 C 108.287 394.400,109.142 393.829,109.801 393.130 L 111.000 391.860 111.107 349.930 C 111.167 326.475,111.368 308.000,111.563 308.000 C 111.754 308.000,112.023 307.400,112.161 306.667 C 112.617 304.238,113.971 303.525,118.769 303.186 C 126.683 302.628,126.788 302.431,126.766 288.200 C 126.747 275.360,126.248 273.514,122.636 272.928 C 121.846 272.800,121.200 272.539,121.200 272.348 C 121.200 272.153,103.586 272.000,81.200 272.000 C 54.800 272.000,41.200 272.136,41.200 272.400 M198.000 272.400 C 198.000 272.620,197.076 272.800,195.948 272.800 C 193.517 272.800,186.142 273.879,185.000 274.402 C 184.560 274.604,183.075 274.979,181.700 275.236 C 180.325 275.494,179.200 275.828,179.200 275.980 C 179.200 276.131,178.300 276.500,177.200 276.800 C 176.100 277.100,175.200 277.472,175.200 277.628 C 175.200 277.784,174.390 278.151,173.400 278.443 C 172.410 278.735,171.600 279.135,171.600 279.330 C 171.600 279.526,171.330 279.582,171.000 279.455 C 170.670 279.329,170.400 279.382,170.400 279.573 C 170.400 279.765,169.860 280.110,169.200 280.340 C 168.540 280.570,168.000 280.914,168.000 281.105 C 168.000 281.295,167.370 281.698,166.600 282.000 C 165.830 282.302,165.200 282.687,165.200 282.856 C 165.200 283.025,164.577 283.458,163.815 283.820 C 163.053 284.181,161.695 285.135,160.797 285.939 C 157.598 288.803,151.600 294.858,151.600 295.222 C 151.600 295.426,151.258 295.807,150.840 296.068 C 150.422 296.329,150.171 296.781,150.283 297.071 C 150.394 297.362,150.282 297.600,150.033 297.600 C 149.784 297.600,149.409 298.050,149.200 298.600 C 148.991 299.150,148.672 299.600,148.490 299.600 C 148.309 299.600,147.933 300.230,147.654 301.000 C 147.376 301.770,146.998 302.400,146.814 302.400 C 146.631 302.400,146.157 303.300,145.761 304.400 C 145.366 305.500,144.900 306.400,144.727 306.400 C 144.553 306.400,144.208 307.210,143.958 308.200 C 143.709 309.190,143.363 310.000,143.189 310.000 C 143.016 310.000,142.643 310.900,142.361 312.000 C 142.079 313.100,141.733 314.000,141.591 314.000 C 141.449 314.000,141.326 314.225,141.318 314.500 C 141.261 316.325,139.777 323.853,139.428 324.085 C 138.837 324.479,138.836 342.719,139.427 343.114 C 139.661 343.271,140.157 345.280,140.529 347.578 C 140.900 349.876,141.362 351.856,141.554 351.978 C 141.746 352.100,142.134 353.235,142.415 354.500 C 142.697 355.765,143.076 356.800,143.258 356.800 C 143.440 356.800,143.792 357.610,144.042 358.600 C 144.291 359.590,144.639 360.400,144.815 360.400 C 144.992 360.400,145.435 361.300,145.800 362.400 C 146.165 363.500,146.634 364.400,146.842 364.400 C 147.050 364.400,147.391 364.850,147.600 365.400 C 147.809 365.950,148.131 366.400,148.315 366.400 C 148.500 366.400,148.904 367.045,149.213 367.833 C 149.522 368.621,150.096 369.437,150.488 369.647 C 150.879 369.857,151.200 370.225,151.200 370.467 C 151.200 370.708,152.010 371.715,153.000 372.705 C 153.990 373.695,154.800 374.644,154.800 374.813 C 154.800 375.217,157.170 377.575,159.047 379.039 C 159.865 379.677,160.815 380.515,161.157 380.900 C 161.498 381.285,162.001 381.600,162.275 381.600 C 162.548 381.600,162.943 381.921,163.153 382.312 C 163.363 382.704,164.179 383.278,164.967 383.587 C 165.755 383.896,166.400 384.300,166.400 384.485 C 166.400 384.669,166.850 384.991,167.400 385.200 C 167.950 385.409,168.400 385.751,168.400 385.959 C 168.400 386.167,169.070 386.559,169.889 386.829 C 170.708 387.100,171.598 387.541,171.867 387.810 C 172.136 388.079,173.176 388.541,174.178 388.837 C 175.180 389.133,176.000 389.508,176.000 389.672 C 176.000 389.835,177.080 390.192,178.400 390.464 C 179.720 390.737,180.800 391.081,180.800 391.229 C 180.800 391.377,182.375 391.824,184.300 392.222 C 186.225 392.621,187.895 393.085,188.012 393.255 C 188.129 393.424,189.434 393.792,190.912 394.073 C 192.390 394.353,193.600 394.721,193.600 394.891 C 193.600 395.061,193.870 395.200,194.200 395.200 C 194.530 395.200,194.800 395.043,194.800 394.851 C 194.800 394.659,195.514 394.388,196.387 394.248 C 197.462 394.077,198.127 393.705,198.447 393.097 C 198.707 392.604,199.117 392.072,199.357 391.916 C 199.649 391.727,199.862 387.766,199.997 380.001 C 200.124 372.757,200.354 368.263,200.609 368.085 C 200.834 367.928,201.333 367.305,201.718 366.700 C 202.103 366.095,202.669 365.600,202.976 365.600 C 203.282 365.600,203.608 365.375,203.700 365.100 C 203.969 364.294,224.763 364.388,225.748 365.200 C 227.319 366.496,228.400 367.742,228.400 368.258 C 228.400 368.556,228.566 368.800,228.768 368.800 C 229.516 368.800,229.735 371.646,229.767 381.800 L 229.800 392.200 230.772 393.300 C 231.307 393.905,232.072 394.400,232.472 394.400 C 232.872 394.400,233.200 394.580,233.200 394.800 C 233.200 395.057,237.333 395.200,244.800 395.200 C 251.180 395.200,256.400 395.043,256.400 394.850 C 256.400 394.658,256.932 394.394,257.583 394.263 C 258.762 394.028,260.000 392.366,260.000 391.020 C 260.000 390.679,260.180 390.400,260.400 390.400 C 260.663 390.400,260.800 381.333,260.800 364.000 C 260.800 349.480,260.656 337.600,260.480 337.600 C 260.305 337.600,259.946 337.007,259.684 336.282 C 259.163 334.840,257.538 334.000,255.272 334.000 C 254.572 334.000,254.000 333.820,254.000 333.600 C 254.000 333.338,245.600 333.200,229.600 333.200 C 213.600 333.200,205.200 333.338,205.200 333.600 C 205.200 333.820,204.581 334.000,203.825 334.000 C 202.853 334.000,202.061 334.355,201.125 335.209 L 199.800 336.418 199.669 344.209 C 199.598 348.494,199.398 352.000,199.225 352.000 C 199.053 352.000,198.808 352.945,198.682 354.100 C 198.392 356.740,197.681 358.228,196.400 358.872 C 195.850 359.149,195.094 359.679,194.720 360.049 C 193.389 361.368,187.154 361.497,185.889 360.232 C 185.608 359.951,184.695 359.495,183.861 359.220 C 183.027 358.945,182.247 358.468,182.129 358.160 C 182.011 357.852,181.690 357.600,181.415 357.600 C 180.735 357.600,175.200 352.032,175.200 351.348 C 175.200 351.046,175.025 350.800,174.810 350.800 C 174.596 350.800,174.121 350.215,173.754 349.500 C 173.388 348.785,172.960 348.110,172.802 348.000 C 172.645 347.890,172.296 347.125,172.027 346.300 C 171.758 345.475,171.397 344.800,171.224 344.800 C 170.862 344.800,170.000 340.810,170.000 339.133 C 170.000 338.510,169.820 338.000,169.600 338.000 C 169.357 338.000,169.200 336.200,169.200 333.400 C 169.200 330.600,169.357 328.800,169.600 328.800 C 169.820 328.800,170.000 328.269,170.000 327.620 C 170.000 326.143,170.809 322.268,171.174 322.000 C 171.323 321.890,171.695 321.170,172.000 320.400 C 172.305 319.630,172.655 318.910,172.777 318.800 C 172.900 318.690,173.360 317.885,173.800 317.011 C 174.545 315.531,180.864 308.801,181.510 308.800 C 181.669 308.799,182.314 308.357,182.942 307.817 C 183.571 307.276,184.736 306.619,185.531 306.357 C 186.327 306.094,187.204 305.653,187.481 305.376 C 187.758 305.099,188.753 304.745,189.692 304.588 C 190.631 304.430,191.528 304.099,191.685 303.851 C 191.891 303.525,201.006 303.345,224.556 303.200 C 261.354 302.974,258.923 303.205,259.771 299.862 C 259.974 299.058,260.289 298.400,260.471 298.400 C 260.652 298.400,260.800 293.540,260.800 287.600 C 260.800 280.667,260.657 276.800,260.400 276.800 C 260.180 276.800,260.000 276.566,260.000 276.280 C 260.000 274.427,257.976 272.800,255.672 272.800 C 255.192 272.800,254.800 272.620,254.800 272.400 C 254.800 272.137,245.067 272.000,226.400 272.000 C 207.733 272.000,198.000 272.137,198.000 272.400 M330.800 272.349 C 330.800 272.541,330.115 272.807,329.277 272.941 C 326.575 273.373,325.961 274.484,325.580 279.634 C 325.398 282.103,325.102 284.230,324.923 284.362 C 324.745 284.493,324.352 285.080,324.050 285.666 C 323.252 287.216,323.696 287.187,300.200 287.212 C 274.084 287.240,273.585 287.316,272.928 291.364 C 272.800 292.154,272.539 292.800,272.348 292.800 C 271.920 292.800,271.878 338.280,272.306 338.467 C 272.474 338.540,272.917 340.733,273.291 343.341 C 273.664 345.949,274.140 348.289,274.348 348.541 C 274.555 348.793,274.854 349.900,275.012 351.000 C 275.280 352.873,276.976 357.155,277.625 357.600 C 277.786 357.710,278.123 358.565,278.374 359.500 C 278.625 360.435,279.023 361.200,279.258 361.200 C 279.493 361.200,279.582 361.470,279.455 361.800 C 279.329 362.130,279.399 362.400,279.613 362.400 C 279.826 362.400,280.000 362.670,280.000 363.000 C 280.000 363.330,280.355 363.955,280.790 364.390 C 281.224 364.824,281.694 365.637,281.834 366.195 C 281.975 366.753,282.294 367.343,282.545 367.505 C 282.795 367.667,283.317 368.371,283.704 369.069 C 284.557 370.606,285.945 372.162,290.400 376.577 C 295.964 382.091,297.464 383.376,298.900 383.858 C 299.285 383.988,299.600 384.219,299.600 384.372 C 299.600 384.525,300.230 384.898,301.000 385.200 C 301.770 385.502,302.400 385.878,302.400 386.036 C 302.400 386.193,302.940 386.510,303.600 386.740 C 304.260 386.970,304.800 387.319,304.800 387.514 C 304.800 387.710,305.835 388.214,307.100 388.635 C 308.365 389.056,309.631 389.618,309.913 389.884 C 310.195 390.151,311.050 390.486,311.813 390.629 C 312.576 390.772,313.200 391.049,313.200 391.245 C 313.200 391.440,313.449 391.600,313.754 391.600 C 314.597 391.600,318.570 392.917,318.824 393.281 C 318.947 393.457,320.882 393.820,323.124 394.088 C 325.366 394.356,327.200 394.720,327.200 394.897 C 327.200 395.073,341.425 395.206,358.812 395.190 C 378.750 395.173,390.337 395.022,390.189 394.781 C 390.059 394.572,390.369 394.400,390.878 394.400 C 391.398 394.400,392.327 393.845,393.001 393.130 L 394.200 391.860 394.322 354.630 C 394.389 334.154,394.330 316.450,394.191 315.288 C 393.924 313.046,392.530 311.200,391.104 311.200 C 390.717 311.200,390.400 311.020,390.400 310.800 C 390.400 310.540,385.109 310.400,375.328 310.400 C 358.372 310.400,357.841 310.330,357.198 308.018 C 356.974 307.211,356.804 300.523,356.802 292.500 C 356.801 283.368,356.659 278.400,356.400 278.400 C 356.180 278.400,356.000 277.868,356.000 277.219 C 356.000 274.682,354.220 272.800,351.820 272.800 C 351.259 272.800,350.800 272.620,350.800 272.400 C 350.800 272.144,347.200 272.000,340.800 272.000 C 335.300 272.000,330.800 272.157,330.800 272.349 M77.671 303.722 C 77.962 304.010,78.498 304.358,78.862 304.495 C 79.227 304.633,79.646 305.298,79.794 305.973 C 79.942 306.648,80.229 307.200,80.432 307.200 C 80.643 307.200,80.800 310.359,80.800 314.600 C 80.800 319.267,80.652 322.000,80.400 322.000 C 80.180 322.000,79.994 322.315,79.987 322.700 C 79.979 323.085,79.599 323.850,79.142 324.400 L 78.310 325.400 58.088 325.400 C 42.267 325.400,37.830 325.291,37.700 324.900 C 37.608 324.625,37.296 324.400,37.006 324.400 C 35.314 324.400,35.081 312.240,36.762 311.679 C 37.003 311.599,37.200 311.289,37.200 310.989 C 37.200 310.690,37.515 310.210,37.900 309.923 C 38.285 309.635,38.846 308.922,39.148 308.337 C 39.449 307.753,40.304 306.947,41.048 306.546 C 41.791 306.146,42.400 305.691,42.400 305.535 C 42.400 305.379,43.030 305.024,43.800 304.746 C 44.570 304.467,45.200 304.107,45.200 303.945 C 45.200 303.102,76.824 302.885,77.671 303.722 M324.185 320.200 L 325.370 321.400 325.621 328.600 C 325.759 332.560,326.021 336.144,326.204 336.565 C 326.785 337.906,329.315 339.985,330.677 340.241 C 331.401 340.377,331.894 340.648,331.773 340.844 C 331.646 341.049,337.109 341.204,344.676 341.210 C 357.290 341.219,360.823 341.470,361.126 342.379 C 361.203 342.610,361.522 342.800,361.833 342.800 C 362.145 342.800,362.400 342.967,362.400 343.171 C 362.400 343.376,362.715 343.858,363.100 344.243 C 363.936 345.079,364.184 360.174,363.371 360.715 C 363.135 360.872,362.824 361.319,362.680 361.709 C 362.536 362.099,362.099 362.536,361.709 362.680 C 361.319 362.824,360.871 363.135,360.714 363.371 C 360.325 363.955,328.090 363.973,327.685 363.389 C 327.528 363.163,326.361 362.766,325.091 362.508 C 323.820 362.250,322.517 361.774,322.195 361.452 C 321.872 361.129,321.068 360.747,320.409 360.602 C 319.749 360.457,319.109 360.177,318.988 359.980 C 318.866 359.783,318.099 359.311,317.283 358.932 C 316.467 358.553,315.656 358.008,315.480 357.722 C 315.304 357.435,314.977 357.200,314.754 357.200 C 314.293 357.200,310.000 353.009,310.000 352.560 C 310.000 352.399,309.738 351.982,309.419 351.634 C 309.099 351.285,308.514 350.639,308.119 350.198 C 307.133 349.098,304.944 344.508,304.590 342.800 C 304.430 342.030,304.097 341.272,303.850 341.115 C 303.537 340.916,303.400 337.872,303.400 331.115 L 303.400 321.400 304.477 320.341 C 306.036 318.809,305.858 318.833,314.800 318.920 L 323.000 319.000 324.185 320.200 M78.000 349.200 C 78.000 349.420,78.518 349.600,79.151 349.600 C 81.486 349.600,86.400 352.792,86.400 354.309 C 86.400 354.548,86.715 355.058,87.100 355.442 C 87.897 356.239,88.153 364.176,87.399 364.714 C 87.179 364.871,86.729 365.530,86.399 366.179 C 85.654 367.644,84.251 369.200,83.674 369.200 C 83.435 369.200,83.056 369.515,82.832 369.900 C 82.608 370.285,82.419 370.443,82.412 370.251 C 82.405 370.059,82.102 370.149,81.739 370.451 C 80.804 371.227,34.757 371.272,34.499 370.498 C 34.407 370.221,34.167 370.097,33.966 370.221 C 33.765 370.345,33.600 370.271,33.600 370.055 C 33.600 369.840,33.057 369.544,32.393 369.398 C 31.595 369.223,30.967 368.711,30.541 367.886 C 30.186 367.200,29.650 366.393,29.348 366.091 C 29.047 365.790,28.687 364.836,28.549 363.972 C 28.411 363.107,28.141 362.400,27.949 362.400 C 27.757 362.400,27.600 361.500,27.600 360.400 C 27.600 359.300,27.780 358.400,28.000 358.400 C 28.220 358.400,28.400 358.008,28.400 357.528 C 28.400 356.382,29.271 354.000,29.690 354.000 C 29.872 354.000,30.191 353.550,30.400 353.000 C 30.609 352.450,31.048 352.000,31.376 352.000 C 31.704 352.000,32.152 351.664,32.372 351.253 C 32.630 350.771,33.626 350.317,35.186 349.971 C 36.514 349.676,37.600 349.292,37.600 349.117 C 37.600 348.943,46.690 348.800,57.800 348.800 C 71.000 348.800,78.000 348.939,78.000 349.200 " stroke="none" fill="#ffffff" fill-rule="evenodd">
    </path>
    <path id="path1" d="" stroke="none" fill="#ffffff" fill-rule="evenodd"></path>
  </g>
</svg>